.
..............................Site Info...........................

 -   http://www.scenetime.com  *_*   

SceneTime is going to Close sign up on march/1, hurry up! get in before the doors are closed.

     We care to share . Join us on  http://www.scenetime.com 

    Be the first to get new release at  http://www.scenetime.com

        Seed back for speed


...................................NFO:.................................................[IMG]http://i.imgur.com/2mcr9.png[/IMG]

 
TITLE: 

Underworld  Awakening 2012 R5 FULL LiNE READNFO XViD - INSPiRAL

IMDB: 
 
http://www.imdb.com/title/tt1496025/


SOURCES:

VIDEO - LUM1X VOBS THANKS
        
AUDIO - SIC FULL LiNE THANKS
        
SUBS  - ENG WHEN NEEDED Add

STATS:

Video
ID                                       : 0
Format                                   : MPEG-4 Visual
Format profile                           : Advanced Simple@L5
Format settings, BVOP                    : 2
Format settings, QPel                    : No
Format settings, GMC                     : No warppoints
Format settings, Matrix                  : Default (MPEG)
Muxing mode                              : Packed bitstream
Codec ID                                 : XVID
Codec ID/Hint                            : XviD
Duration                                 : 1h 25mn
Bit rate                                 : 2 170 Kbps
Width                                    : 720 pixels
Height                                   : 304 pixels
Display aspect ratio                     : 2.35:1
Frame rate                               : 25.000 fps
Color space                              : YUV
Chroma subsampling                       : 4:2:0
Bit depth                                : 8 bits
Scan type                                : Progressive
Compression mode                         : Lossy
Bits/(Pixel*Frame)                       : 0.397
Stream size                              : 1.29 GiB (94%)
Writing library                          : XviD 64

Audio
ID                                       : 1
Format                                   : MPEG Audio
Format version                           : Version 1
Format profile                           : Layer 3
Mode                                     : Joint stereo
Mode extension                           : MS Stereo
Codec ID                                 : 55
Codec ID/Hint                            : MP3
Duration                                 : 1h 25mn
Bit rate mode                            : Constant
Bit rate                                 : 128 Kbps
Channel(s)                               : 2 channels
Sampling rate                            : 44.1 KHz
Compression mode                         : Lossy
Stream size                              : 78.0 MiB (6%)
Alignment                                : Split accross interleaves
Interleave, duration                     : 40 ms (1.00 video frame)
Interleave, preload duration             : 500 ms



NOTES:

Sources:
Video now is a rip off the vobs,very nice Q for a R5...few tweaks needed.On a bonus side english already hardcoded when
needed.
Audio sic audio as before with that buzzing....but this time FULL line audio.

Workdone:
Video we did our own rip this time off the vobs ...cropping the borders,resizing,heavynosie filter,sharpness,brightness and
contrast tweaked along with a slight tweak on the chroma and RGB colours :)
Audio.....well all sync done thanks to sic,so we just stripped in and cleaned it up in AA...first ran a hiss removal,then had to change
the EQ  bands alot to try and remove that buzz without killing the audio....got dam close i say so :P

Overall IMHO V9 A7 .....Enjoy.

SCREENS:

[IMG]http://i.imgur.com/JknFx.png[/IMG]
[IMG]http://i.imgur.com/UopXC.png[/IMG]
[IMG]http://i.imgur.com/iNrP9.png[/IMG]
[IMG]http://i.imgur.com/S1Sds.png[/IMG]


GREETZ: 

Past,Present and Future


[IMG]http://i.imgur.com/2mcr9.png[/IMG]